###########################################################################

       Diary of a Wimpy Kid duology (2010, 2011) 720p multi [mkvonly]

###########################################################################

Diary of a Wimpy Kid (2010) BDRip 720p Eng Ger Ita Spa multisub [mkvonly]

               http://www.imdb.com/title/tt1196141/

Format                           : Matroska
File size                        : 2.59 GiB
Duration                         : 1h 32mn

Video
Bit rate                         : 2 700 Kbps
Width                            : 1 280 pixels
Height                           : 720 pixels
Display aspect ratio             : 1280 x 720 (16:9)
Frame rate                       : 23.976 fps
Stream size                      : 1.68 GiB (65%)
Title                            : Diary of a Wimpy Kid (2010) 720p [mkvonly]
Writing library                  : x264 core 112
Encoding settings                : cabac=1 / ref=6 / deblock=1:-2:-1 /  me=umh / subme=10 / psy=1 / me_range=64 / chroma_me=1 / trellis=2 / 8x8dct=1 / bframes=8 / b_pyramid=1 / b_adapt=2 / weightb=1 / rc_lookahead=100 / rc=2pass / mbtree=1 / bitrate=2700 

Audio #1 English DTS 768 KB/s, 500 MiB (19%)
Audio #2 German AC3 192 KB/s, 127 MiB (5%)
Audio #3 Italian AC3 192 KB/s, 127 MiB (5%)
Audio #4 Spanish AC3 192 KB/s, 127 MiB (5%)

Subtitles:
Eng, Ara, Bul, Chi, Dan, Dut, Fin, Fre, Ger, Hun, Ind, 
Ita, Nor, Per, Pol, Por Br, Rom, Rus, Spa Cast, Swe, Vie

###########################################################################

Diary of a Wimpy Kid Rodrick Rules 2011 BDRip 720p Eng Fre Ger Spa multisub [mkvonly]

               http://www.imdb.com/title/tt1650043/

Format                           : Matroska
File size                        : 2.31 GiB
Duration                         : 1h 39mn

Video
Bit rate                         : 2 000 Kbps
Width                            : 1 280 pixels
Height                           : 544 pixels
Display aspect ratio             : 1280 x 544 (2.35:1)
Frame rate                       : 23.976 fps
Stream size                      : 1.34 GiB (58%)
Title                            : Diary of a Wimpy Kid Rodrick Rules 2011 720p [mkvonly]
Writing library                  : x264 core 112
Encoding settings                : cabac=1 / ref=6 / deblock=1:-2:-1 / me=umh / subme=10 / psy=1 / me_range=64 / chroma_me=1 / trellis=2 / 8x8dct=1 /  bframes=8 / b_pyramid=1 / b_adapt=2 / weightp=2 / rc_lookahead=80 / rc=2pass / mbtree=1 / bitrate=2000

Audio #1 English DTS 768 KB/s, 537 MiB (23%)
Audio #2 French AC3 192 KB/s, 137 MiB (6%)
Audio #3 German AC3 192 KB/s, 137 MiB (6%)
Audio #4 Spanish AC3 192 KB/s, 137 MiB (6%)

Subtitles:
Eng, Ara, Bul, Dan, Dut, Est, Fin, Fre, Ger, Hun, Ind, Lat, Lit, 
Nor, Per, Pol, Por Br, Rom, Rus, Spa Cast, Swe, Ukr, Vie

###########################################################################

You want more of this practically lossless quality in smallest size possible?
Then check out my torrents:    http://thepiratebay.org/user/mkvonly/

###########################################################################
